<svg width="25" height="24" fill="none" xmlns="http://www.w3.org/2000/svg"><path fill-rule="evenodd" clip-rule="evenodd" d="M22.906 14.392c-1.166 4.689-5.39 8.162-10.421 8.162-5.932 0-10.74-4.827-10.74-10.782 0-5.051 3.46-9.292 8.13-10.462.686-.172 2.13-.31 2.13-.31s-.497 1.903-.497 2.93c0 4.872 3.935 8.822 8.788 8.822a8.74 8.74 0 002.919-.498c-.033.734-.138 1.45-.31 2.138zm-19.209-2.62a8.823 8.823 0 015.869-8.324c-.007.16-.01.32-.01.482 0 5.955 4.808 10.782 10.74 10.782.16 0 .32-.003.48-.01-1.203 3.432-4.461 5.892-8.291 5.892-4.854 0-8.788-3.95-8.788-8.822z" fill="#fff" stroke="#fff" stroke-width=".671"/></svg>